<svg width="680" height="430" viewBox="0 0 680 430" xmlns="http://www.w3.org/2000/svg" font-family="system-ui, -apple-system, sans-serif">

  <!-- Row 1: HTTP Layer -->
  <rect x="55" y="30" width="155" height="48" rx="8" fill="#E6F1FB" stroke="#185FA5" stroke-width="0.5"/>
  <text x="132" y="50" text-anchor="middle" dominant-baseline="central" font-size="13" font-weight="500" fill="#0C447C">POST /search</text>
  <text x="132" y="67" text-anchor="middle" dominant-baseline="central" font-size="11" fill="#185FA5">search providers</text>

  <rect x="225" y="30" width="155" height="48" rx="8" fill="#E6F1FB" stroke="#185FA5" stroke-width="0.5"/>
  <text x="302" y="50" text-anchor="middle" dominant-baseline="central" font-size="13" font-weight="500" fill="#0C447C">POST /route</text>
  <text x="302" y="67" text-anchor="middle" dominant-baseline="central" font-size="11" fill="#185FA5">agentic routing</text>

  <rect x="395" y="30" width="155" height="48" rx="8" fill="#E6F1FB" stroke="#185FA5" stroke-width="0.5"/>
  <text x="472" y="50" text-anchor="middle" dominant-baseline="central" font-size="13" font-weight="500" fill="#0C447C">GET /pharmacy</text>
  <text x="472" y="67" text-anchor="middle" dominant-baseline="central" font-size="11" fill="#185FA5">nearest pharmacy</text>

  <text x="560" y="54" font-size="11" fill="#888780">HTTP</text>

  <!-- Arrows Row1 to Row2 -->
  <line x1="132" y1="78" x2="132" y2="106" stroke="#888780" stroke-width="1"/>
  <polygon points="128,104 132,110 136,104" fill="#888780"/>
  <line x1="302" y1="78" x2="302" y2="106" stroke="#888780" stroke-width="1"/>
  <polygon points="298,104 302,110 306,104" fill="#888780"/>
  <line x1="472" y1="78" x2="472" y2="106" stroke="#888780" stroke-width="1"/>
  <polygon points="468,104 472,110 476,104" fill="#888780"/>

  <!-- Row 2: Network Resolver -->
  <rect x="55" y="108" width="495" height="52" rx="8" fill="#EEEDFE" stroke="#534AB7" stroke-width="0.5"/>
  <text x="302" y="128" text-anchor="middle" dominant-baseline="central" font-size="13" font-weight="500" fill="#3C3489">Network Resolver</text>
  <text x="302" y="147" text-anchor="middle" dominant-baseline="central" font-size="11" fill="#534AB7">Insurance plan resolves provider network · YAML config · PostgreSQL and Redis in production</text>

  <text x="560" y="134" font-size="11" fill="#888780">Resolution</text>

  <!-- Arrows Row2 to Row3 -->
  <line x1="160" y1="160" x2="160" y2="188" stroke="#888780" stroke-width="1"/>
  <polygon points="156,186 160,192 164,186" fill="#888780"/>
  <line x1="357" y1="160" x2="357" y2="188" stroke="#888780" stroke-width="1"/>
  <polygon points="353,186 357,192 361,186" fill="#888780"/>
  <line x1="500" y1="160" x2="500" y2="188" stroke="#888780" stroke-width="1"/>
  <polygon points="496,186 500,192 504,186" fill="#888780"/>

  <!-- Row 3: Services -->
  <rect x="55" y="190" width="210" height="62" rx="8" fill="#E1F5EE" stroke="#0F6E56" stroke-width="0.5"/>
  <text x="160" y="210" text-anchor="middle" dominant-baseline="central" font-size="12" font-weight="500" fill="#085041">Federated Slot Repository</text>
  <text x="160" y="228" text-anchor="middle" dominant-baseline="central" font-size="11" fill="#0F6E56">asyncio.gather()</text>
  <text x="160" y="244" text-anchor="middle" dominant-baseline="central" font-size="10" fill="#0F6E56">parallel queries · no single point of failure</text>

  <rect x="280" y="190" width="155" height="62" rx="8" fill="#E1F5EE" stroke="#0F6E56" stroke-width="0.5"/>
  <text x="357" y="210" text-anchor="middle" dominant-baseline="central" font-size="13" font-weight="500" fill="#085041">Routing Engine</text>
  <text x="357" y="228" text-anchor="middle" dominant-baseline="central" font-size="11" fill="#0F6E56">Claude tool_use</text>
  <text x="357" y="244" text-anchor="middle" dominant-baseline="central" font-size="10" fill="#0F6E56">Vertex AI in production</text>

  <rect x="450" y="190" width="100" height="62" rx="8" fill="#E1F5EE" stroke="#0F6E56" stroke-width="0.5"/>
  <text x="500" y="213" text-anchor="middle" dominant-baseline="central" font-size="12" font-weight="500" fill="#085041">Pharmacy</text>
  <text x="500" y="231" text-anchor="middle" dominant-baseline="central" font-size="12" font-weight="500" fill="#085041">Service</text>
  <text x="500" y="247" text-anchor="middle" dominant-baseline="central" font-size="10" fill="#0F6E56">24hr filter</text>

  <text x="560" y="221" font-size="11" fill="#888780">Services</text>

  <!-- Arrows Row3 to Row4 -->
  <line x1="160" y1="252" x2="160" y2="278" stroke="#888780" stroke-width="1"/>
  <polygon points="156,276 160,282 164,276" fill="#888780"/>
  <line x1="357" y1="252" x2="357" y2="278" stroke="#888780" stroke-width="1"/>
  <polygon points="353,276 357,282 361,276" fill="#888780"/>
  <line x1="500" y1="252" x2="500" y2="278" stroke="#888780" stroke-width="1"/>
  <polygon points="496,276 500,282 504,276" fill="#888780"/>

  <!-- Row 4: Implementation -->
  <rect x="55" y="282" width="48" height="44" rx="6" fill="#FAEEDA" stroke="#854F0B" stroke-width="0.5"/>
  <text x="79" y="304" text-anchor="middle" dominant-baseline="central" font-size="10" fill="#633806">HealthFirst</text>

  <rect x="107" y="282" width="48" height="44" rx="6" fill="#FAEEDA" stroke="#854F0B" stroke-width="0.5"/>
  <text x="131" y="304" text-anchor="middle" dominant-baseline="central" font-size="10" fill="#633806">Bayview</text>

  <rect x="159" y="282" width="48" height="44" rx="6" fill="#FAEEDA" stroke="#854F0B" stroke-width="0.5"/>
  <text x="183" y="304" text-anchor="middle" dominant-baseline="central" font-size="10" fill="#633806">Pacific</text>

  <rect x="211" y="282" width="48" height="44" rx="6" fill="#FAEEDA" stroke="#854F0B" stroke-width="0.5"/>
  <text x="235" y="304" text-anchor="middle" dominant-baseline="central" font-size="10" fill="#633806">QuickCare</text>

  <rect x="280" y="282" width="155" height="44" rx="6" fill="#FAEEDA" stroke="#854F0B" stroke-width="0.5"/>
  <text x="357" y="298" text-anchor="middle" dominant-baseline="central" font-size="10" fill="#633806">Slot · UrgentCare · Pharmacy</text>
  <text x="357" y="314" text-anchor="middle" dominant-baseline="central" font-size="10" fill="#633806">Agents — Strategy pattern</text>

  <rect x="450" y="282" width="100" height="44" rx="6" fill="#FAEEDA" stroke="#854F0B" stroke-width="0.5"/>
  <text x="500" y="298" text-anchor="middle" dominant-baseline="central" font-size="10" fill="#633806">Mock FHIR</text>
  <text x="500" y="314" text-anchor="middle" dominant-baseline="central" font-size="10" fill="#633806">Google Places API</text>

  <text x="560" y="304" font-size="11" fill="#888780">Impl.</text>

  <!-- Arrows Row4 to Row5 -->
  <line x1="160" y1="326" x2="160" y2="352" stroke="#888780" stroke-width="1"/>
  <polygon points="156,350 160,356 164,350" fill="#888780"/>
  <line x1="357" y1="326" x2="357" y2="352" stroke="#888780" stroke-width="1"/>
  <polygon points="353,350 357,356 361,350" fill="#888780"/>
  <line x1="500" y1="326" x2="500" y2="352" stroke="#888780" stroke-width="1"/>
  <polygon points="496,350 500,356 504,350" fill="#888780"/>

  <!-- Row 5: Data Layer -->
  <rect x="55" y="354" width="495" height="44" rx="8" fill="#FAEEDA" stroke="#854F0B" stroke-width="0.5"/>
  <text x="302" y="371" text-anchor="middle" dominant-baseline="central" font-size="12" font-weight="500" fill="#633806">Data layer</text>
  <text x="302" y="387" text-anchor="middle" dominant-baseline="central" font-size="10" fill="#854F0B">providers_healthfirst.json · providers_bayview.json · providers_pacific.json · providers_quickcare.json · tools.yaml</text>

  <text x="560" y="376" font-size="11" fill="#888780">Data</text>
</svg>
